<?xml version="1.0" encoding="UTF-8" standalone="no"?>
<!DOCTYPE svg PUBLIC "-//W3C//DTD SVG 1.1//EN" "http://www.w3.org/Graphics/SVG/1.1/DTD/svg11.dtd">
<svg width="100%" height="100%" viewBox="0 0 3000 3000" version="1.1" xmlns="http://www.w3.org/2000/svg" xmlns:xlink="http://www.w3.org/1999/xlink" xml:space="preserve" xmlns:serif="http://www.serif.com/" style="fill-rule:evenodd;clip-rule:evenodd;stroke-linejoin:round;stroke-miterlimit:2;">
    <g transform="matrix(3.58046,-3.19197e-17,-3.19197e-17,3.71078,-1370.29,-1833.44)">
        <g id="Bg1Round">
            <ellipse cx="801.656" cy="898.314" rx="418.941" ry="404.228" style="fill:rgb(250,255,105);"/>
        </g>
    </g>
    <g id="C" transform="matrix(0.787015,0.454383,0.454383,-0.787015,-1008.06,2156.2)">
        <g transform="matrix(0.624547,-0.360583,-0.360583,-0.624547,1192.63,3689.74)">
            <path d="M1567.14,653.955C1138.32,653.955 790.692,1001.58 790.692,1430.4C790.692,1858.93 1138.61,2206.85 1567.14,2206.85C1995.96,2206.85 2343.59,1859.22 2343.59,1430.4L1955.36,1430.4C1955.36,1644.81 1781.55,1818.62 1567.14,1818.62C1352.87,1818.62 1178.91,1644.67 1178.91,1430.4C1178.91,1215.99 1352.73,1042.18 1567.14,1042.18L1567.14,653.955Z"/>
        </g>
        <g transform="matrix(-0.360583,-0.624547,0.624547,-0.360583,2079.21,3352.3)">
            <path d="M1567.14,653.955C1138.32,653.955 790.692,1001.58 790.692,1430.4C790.692,1858.93 1138.61,2206.85 1567.14,2206.85C1995.96,2206.85 2343.59,1859.22 2343.59,1430.4L1955.36,1430.4C1955.36,1644.81 1781.55,1818.62 1567.14,1818.62C1352.87,1818.62 1178.91,1644.67 1178.91,1430.4C1178.91,1215.99 1352.73,1042.18 1567.14,1042.18L1567.14,653.955Z"/>
        </g>
    </g>
</svg>
